<?xml version="1.0" encoding="UTF-8" standalone="no"?>
<!-- Created with Inkscape (http://www.inkscape.org/) -->

<svg
   xmlns:dc="http://purl.org/dc/elements/1.1/"
   xmlns:cc="http://creativecommons.org/ns#"
   xmlns:rdf="http://www.w3.org/1999/02/22-rdf-syntax-ns#"
   xmlns:svg="http://www.w3.org/2000/svg"
   xmlns="http://www.w3.org/2000/svg"
   xmlns:sodipodi="http://sodipodi.sourceforge.net/DTD/sodipodi-0.dtd"
   xmlns:inkscape="http://www.inkscape.org/namespaces/inkscape"
   sodipodi:docname="yudetamago_existance.svg"
   inkscape:version="0.91 r13725"
   version="1.1"
   id="svg2"
   viewBox="0 0 56.28189 70.465744"
   height="19.886999mm"
   width="15.884mm">
  <sodipodi:namedview
     inkscape:snap-grids="false"
     inkscape:snap-bbox-midpoints="false"
     inkscape:bbox-nodes="true"
     inkscape:snap-bbox="true"
     inkscape:snap-nodes="true"
     inkscape:window-maximized="1"
     inkscape:window-y="27"
     inkscape:window-x="0"
     inkscape:window-height="704"
     inkscape:window-width="1024"
     inkscape:snap-global="true"
     showgrid="true"
     inkscape:current-layer="svg2"
     inkscape:document-units="mm"
     inkscape:cy="34.508814"
     inkscape:cx="36.601729"
     inkscape:zoom="3.959798"
     inkscape:pageshadow="2"
     inkscape:pageopacity="0.0"
     borderopacity="1.0"
     bordercolor="#666666"
     pagecolor="#ffffff"
     id="base">
    <inkscape:grid
       type="xygrid"
       id="grid4136" />
  </sodipodi:namedview>
  <defs
     id="defs4" />
  <metadata
     id="metadata7">
    <rdf:RDF>
      <cc:Work
         rdf:about="">
        <dc:format>image/svg+xml</dc:format>
        <dc:type
           rdf:resource="http://purl.org/dc/dcmitype/StillImage" />
        <dc:title></dc:title>
      </cc:Work>
    </rdf:RDF>
  </metadata>
  <g
     inkscape:label="Layer 1"
     inkscape:groupmode="layer"
     id="layer1"
     transform="translate(0,-981.89651)">
    <g
       id="g4956"
       transform="translate(-4.9660782,10.086798)">
      <path
         style="fill:#fffffe"
         d="m 29.725656,1042.2087 c -4.433755,-0.1804 -5.65663,-0.4451 -10.625341,-2.3001 -3.772742,-1.4085 -4.653112,-2.0859 -7.048317,-5.4232 -0.782526,-1.0904 -1.539164,-2.1218 -1.681415,-2.292 -0.14225,-0.1702 -0.3728583,-0.61 -0.5124626,-0.9771 -0.1396043,-0.3672 -0.6502279,-1.344 -1.1347156,-2.1707 -0.4844902,-0.8266 -0.8808914,-1.617 -0.8808914,-1.7563 0,-0.1393 -0.2161371,-0.7309 -0.4803033,-1.3146 -0.7530255,-1.6639 -1.845174,-6.3975 -2.2294065,-9.6628 -0.2023217,-1.7193 -0.2278934,-8.6437 -0.035972,-9.7399 1.070708,-6.1151 1.3332779,-7.12095 3.004768,-11.51075 2.6902074,-7.06525 4.4944894,-10.36295 7.9241394,-14.48303 2.57111,-3.0887 5.110526,-5.02012 9.17628,-6.97925 0.990532,-0.4773 1.879534,-0.99494 1.975557,-1.15031 0.09603,-0.15537 0.597913,-0.28249 1.115306,-0.28249 0.517394,0 1.221881,-0.19694 1.56553,-0.43764 0.510285,-0.35741 1.204595,-0.43857 3.78781,-0.44272 4.128388,-0.007 6.156288,0.24661 8.111985,1.01304 0.878926,0.34445 1.701606,0.62627 1.828179,0.62627 0.490008,0 3.435668,1.95488 5.366078,3.56118 1.864492,1.55146 2.591999,2.2477 4.240444,4.05825 1.293765,1.42099 4.055898,5.87213 5.034636,8.11324 2.166515,4.96089 3.502335,12.25141 3.498553,19.09391 -0.0043,7.7788 -1.274725,13.5691 -4.431387,20.1975 -1.940316,4.0743 -4.168923,7.4609 -6.390181,9.7106 -1.488492,1.5075 -1.98128,1.8296 -3.97594,2.5994 -1.40021,0.5403 -2.276858,1.0182 -2.276858,1.2414 0,0.1995 -0.170765,0.3627 -0.379477,0.3627 -0.208712,0 -0.3469,-0.1546 -0.307082,-0.3436 0.05602,-0.266 -0.172814,-0.3082 -1.011938,-0.1865 -0.596382,0.086 -1.596624,0.1975 -2.22276,0.2469 -0.626136,0.049 -2.163016,0.1712 -3.415288,0.2706 -1.252273,0.1 -2.561467,0.2578 -2.90932,0.3518 -0.347853,0.094 -2.453948,0.097 -4.68021,0.01 z M 7.3267366,1006.5904 c 0.1435383,-0.2682 0.202901,-0.639 0.1319212,-0.824 -0.072336,-0.1885 0.1226493,-0.4467 0.4436282,-0.5875 0.6623307,-0.2906 0.9457819,-1.3897 0.3583801,-1.3897 -0.2067944,0 -0.4337289,0.1423 -0.5043039,0.3162 -0.099188,0.2445 -0.1837501,0.237 -0.3725473,-0.033 -0.1792065,-0.2562 -0.3190511,-2e-4 -0.5252283,0.9611 -0.1545481,0.7207 -0.2809947,1.4754 -0.2809947,1.6773 0,0.5244 0.441999,0.4533 0.7491447,-0.1206 z m 1.9676007,-3.6234 c 0.2638348,-0.3353 0.5430434,-1.68 0.6959902,-3.35203 0.1174525,-1.28402 0.7882765,-2.88694 1.2885245,-3.0789 0.274815,-0.10545 0.340021,-0.35024 0.228526,-0.85788 -0.21638,-0.98517 0.208791,-2.34919 0.995716,-3.19444 0.518016,-0.5564 0.578487,-0.72911 0.277683,-0.79309 -0.2115,-0.045 -0.384546,-0.29756 -0.384546,-0.56128 0,-0.85989 -0.701973,-0.25722 -0.843103,0.72383 -0.289245,2.01065 -0.401802,2.3385 -1.170245,3.40854 -0.6099399,0.84932 -0.7935584,1.36786 -0.787669,2.22439 0.012371,1.80054 -0.1117836,2.85306 -0.400335,3.39376 -0.3597487,0.674 -0.6155462,2.4033 -0.3554986,2.4033 0.1133547,0 0.3180873,-0.1423 0.4549569,-0.3162 z m 3.8608467,-13.34491 c 0,-0.13914 -0.107124,-0.25299 -0.238053,-0.25299 -0.13093,0 -0.308413,0.11385 -0.394408,0.25299 -0.08599,0.13914 0.02112,0.25298 0.238053,0.25298 0.216924,0 0.394408,-0.11384 0.394408,-0.25298 z"
         id="path4245"
         inkscape:connector-curvature="0"
         sodipodi:nodetypes="csssssssssssscsssssssssssssscccccccscsscssssssssssssssssssssss" />
      <path
         style="fill:#fff6dd"
         d="m 27.453417,1042.0361 c -0.04436,-0.044 -0.86044,-0.239 -1.813523,-0.4332 -2.144133,-0.4368 -3.201663,-0.7445 -5.780626,-1.6821 -3.025604,-1.0999 -3.998151,-1.6514 -5.482081,-3.1085 -1.469662,-1.443 -4.07367,-4.975 -4.3803781,-5.9414 -0.1055476,-0.3325 -0.5765209,-1.2059 -1.0466087,-1.9407 -0.4700853,-0.7349 -0.8547024,-1.5169 -0.8547024,-1.7379 0,-0.2209 -0.2276986,-0.848 -0.505999,-1.3935 -0.2782979,-0.5455 -0.7866775,-2.1063 -1.1297344,-3.4685 -0.9698204,-3.8507 -1.1189976,-5.0756 -1.2875661,-10.5721 -0.1792344,-5.8443 0.6970401,-10.2861 3.4437084,-17.4559 1.4486113,-3.78143 2.2796623,-5.61493 3.4973643,-7.71602 1.745308,-3.01147 2.282819,-3.78989 4.152024,-6.01294 2.181316,-2.59424 6.587901,-5.92948 8.821401,-6.67671 0.464307,-0.15534 1.206591,-0.55132 1.649516,-0.87995 0.442924,-0.32864 1.127669,-0.59753 1.521652,-0.59753 0.393983,0 1.152951,-0.23401 1.686593,-0.52003 0.886295,-0.47502 1.269106,-0.50804 4.423479,-0.38157 4.104337,0.16456 5.860154,0.34098 6.222384,0.62522 0.146655,0.11508 1.006625,0.4611 1.911044,0.76894 0.904419,0.30784 2.006793,0.83524 2.449718,1.172 0.442925,0.33677 0.912246,0.6123 1.042938,0.6123 0.704642,0 6.626716,5.29722 6.626716,5.92751 0,0.20861 0.21464,0.49417 0.476979,0.63457 0.717059,0.38376 3.014825,3.79686 4.097974,6.08714 0.296121,0.62613 0.697091,1.46072 0.891044,1.85464 0.406237,0.82505 0.445791,1.18117 0.131198,1.18117 -0.121795,0 -0.677915,-0.9392 -1.235824,-2.08712 -1.359509,-2.79725 -2.258254,-3.9882 -5.927688,-7.85495 -3.284626,-3.46126 -5.981629,-5.66842 -7.980729,-6.53125 -3.181996,-1.37338 -8.693434,-1.88657 -12.004168,-1.11774 -3.486223,0.80957 -7.30642,2.56851 -10.205008,4.69869 -1.578526,1.16006 -4.528945,4.29726 -6.005678,6.38587 -2.8793,4.07233 -5.8509301,11.03598 -7.7425646,18.14376 -0.9281261,3.4874 -1.1126478,5.513 -0.9713156,10.6626 0.1102253,4.0161 0.2512792,5.4072 0.7849294,7.7409 1.4853948,6.4959 4.1224328,11.7856 7.7165828,15.4789 1.468865,1.5093 1.90056,1.7938 3.568402,2.3516 1.04356,0.349 3.148676,1.0549 4.678034,1.5688 2.937634,0.9871 7.432323,1.6039 9.236103,1.2675 0.486995,-0.091 2.137718,-0.2599 3.668273,-0.3757 10.315167,-0.7807 11.892635,-1.1554 14.260935,-3.3875 2.222275,-2.0946 5.32828,-6.8557 6.906517,-10.5869 0.424609,-1.0038 0.851179,-1.9389 0.94793,-2.0781 0.09675,-0.1391 0.438414,-1.0783 0.759249,-2.0871 0.320835,-1.0088 0.69765,-1.8341 0.837365,-1.8341 0.147058,0 0.179741,0.2397 0.07761,0.5692 -0.09703,0.313 -0.24072,0.8538 -0.319304,1.2016 -0.07859,0.3479 -0.29708,0.8571 -0.485543,1.1315 -0.188466,0.2745 -0.345197,0.7298 -0.348291,1.012 -0.0031,0.2821 -0.228247,0.7975 -0.500342,1.1453 -0.272095,0.3479 -0.497676,0.8033 -0.501289,1.012 -0.0036,0.2087 -0.239745,0.7619 -0.524735,1.2294 -0.284991,0.4674 -0.704971,1.3213 -0.933289,1.8974 -0.561769,1.4174 -3.362893,5.4358 -5.088354,7.2995 -1.390794,1.5023 -3.038873,2.5059 -5.222072,3.1802 -1.250722,0.3863 -3.831222,0.8505 -4.68021,0.842 -0.347853,0 -1.258597,0.1083 -2.023874,0.2485 -0.765278,0.1402 -2.131393,0.2958 -3.035812,0.3457 -2.650567,0.1463 -8.382612,0.2699 -8.470355,0.1826 z m 7.711402,-8.2761 c -1.04356,-0.1718 -3.206576,-0.438 -4.806702,-0.5915 -6.769865,-0.6497 -7.987856,-0.8351 -9.255805,-1.4088 -1.262921,-0.5715 -2.589082,-1.7004 -3.447119,-2.9345 -1.761236,-2.533 -2.476135,-3.5976 -2.476135,-3.6871 0,-0.1105 -0.646182,-1.5816 -1.736201,-3.9529 -0.366931,-0.7982 -0.797586,-1.4528 -0.957006,-1.4547 -0.159423,0 -0.650838,-0.5658 -1.09203,-1.2534 -0.664453,-1.0354 -0.754318,-1.3394 -0.523442,-1.7708 0.18781,-0.351 0.19735,-0.6729 0.02925,-0.987 -0.248688,-0.4647 0.04886,-1.9944 0.715913,-3.6806 0.18435,-0.466 0.229267,-1.3944 0.123783,-2.5585 -0.114013,-1.2582 -0.07571,-1.8826 0.123011,-2.0055 0.532517,-0.3291 1.013716,-1.8797 0.865935,-2.7904 -0.109644,-0.6756 -0.04597,-0.9237 0.268049,-1.0442 0.269155,-0.1033 0.411851,-0.4572 0.411851,-1.0214 0,-0.4749 0.267225,-1.2881 0.59383,-1.8071 0.326608,-0.519 0.671456,-1.36075 0.76633,-1.87055 0.217817,-1.17042 1.423776,-3.44682 2.354561,-4.44453 0.391877,-0.42005 1.110955,-1.30323 1.59795,-1.96262 1.549827,-2.09847 2.828982,-3.14707 4.462985,-3.65861 0.913926,-0.28611 1.198751,-0.27029 2.230767,0.12384 1.053882,0.40248 1.166179,0.51911 1.028389,1.06812 -0.110286,0.43941 -0.06075,0.58498 0.172583,0.50721 0.179996,-0.06 0.327266,-0.21792 0.327266,-0.35094 0,-0.13302 0.381627,-0.6149 0.848059,-1.07086 l 0.848059,-0.829 2.314245,0.1182 c 3.101114,0.15838 5.854193,0.71928 5.862127,1.19431 0.0035,0.20897 0.220005,0.34585 0.505764,0.31975 0.274811,-0.0251 0.58879,0.11362 0.697725,0.30828 0.223889,0.40007 1.386815,0.26524 2.489854,-0.28868 0.82527,-0.41442 0.976955,-0.27299 0.810079,0.75534 -0.122979,0.75782 -0.037,0.87196 1.320451,1.75301 1.221664,0.79292 1.591069,0.91633 2.328693,0.77795 0.778337,-0.14602 0.95873,-0.0685 1.607847,0.69099 0.402131,0.4705 0.731413,1.00143 0.731739,1.17984 2.53e-4,0.17841 0.211541,0.40609 0.469365,0.50597 0.981688,0.38027 4.103314,4.49968 4.863132,6.41758 0.146068,0.3687 0.501653,0.7321 0.790187,0.8076 0.426012,0.1114 0.497159,0.2744 0.378555,0.8674 -0.08343,0.4172 0.105958,1.6979 0.441759,2.9872 1.256317,4.8238 1.38307,8.544 0.430306,12.6293 -1.294592,5.5511 -1.731303,6.5817 -3.693194,8.7158 -0.743617,0.8088 -1.547277,1.7686 -1.785915,2.1328 -0.254975,0.3892 -0.668336,0.6622 -1.002465,0.6622 -0.312717,0 -1.001573,0.3441 -1.530788,0.7647 -0.529218,0.4206 -1.256389,0.8352 -1.61594,0.9213 -0.359549,0.086 -1.079236,0.3698 -1.599304,0.6303 -0.857161,0.4294 -1.718059,0.5631 -5.252538,0.816 -0.626137,0.045 -1.992252,-0.059 -3.035812,-0.2308 z m 35.254618,-4.5459 c -7.59e-4,-1.2522 0.04201,-1.7964 0.09506,-1.2093 0.05306,0.5872 0.05369,1.6118 0.0015,2.2769 -0.0524,0.6651 -0.09581,0.1847 -0.09658,-1.0676 z m -10.968124,-9.3753 c 0,-0.2169 0.1157,-0.3229 0.25711,-0.2355 0.141411,0.087 0.191616,0.2649 0.111561,0.3944 -0.216866,0.3509 -0.368671,0.2855 -0.368671,-0.1589 z m 0.599064,-2.3884 c 0.197092,-1.1486 0.353184,-2.148 0.543264,-3.4786 0.170126,-1.1909 0.633907,-1.4751 0.619262,-0.3794 -0.01647,1.2318 -0.665483,4.1285 -0.994947,4.4407 -0.25538,0.2419 -0.289022,0.1249 -0.167579,-0.5827 z m 0.826948,-5.2567 c -0.207288,-0.3354 0.137858,-2.3343 0.377488,-2.1862 0.295361,0.1825 0.282702,2.0618 -0.01513,2.2459 -0.129528,0.08 -0.292589,0.053 -0.362359,-0.06 z m 0.08911,-6.6819 c -0.0015,-0.1822 -0.07335,-0.7581 -0.159592,-1.2799 -0.127694,-0.7725 -0.08021,-0.9487 0.255769,-0.9487 0.319512,0 0.412577,0.2535 0.412577,1.1235 0,0.618 -0.113843,1.1939 -0.252984,1.2799 -0.139142,0.086 -0.254237,0.01 -0.25577,-0.1748 z m -0.334526,-3.1562 c -0.318249,-0.3182 -0.168632,-1.0962 0.210819,-1.0962 0.236118,0 0.379477,0.2389 0.379477,0.6324 0,0.6142 -0.246339,0.8078 -0.590296,0.4638 z m -0.278521,-2.41406 c -0.923521,-4.2923 -1.121077,-6.598 -0.418157,-4.88034 0.170812,0.4174 0.342239,1.11187 0.380951,1.54327 0.03871,0.4314 0.154647,0.92071 0.257637,1.08735 0.10299,0.16664 0.125214,0.46464 0.04939,0.66224 -0.07582,0.19759 -0.02899,0.42654 0.104073,0.50878 0.315659,0.19509 0.312969,1.31086 -0.0036,1.50646 -0.135063,0.084 -0.301681,-0.109 -0.370265,-0.42776 z m -1.484805,-7.01333 c -0.467437,-1.49648 -0.554643,-2.40157 -0.210923,-2.18914 0.334212,0.20655 0.85113,2.2738 0.739359,2.95683 -0.07762,0.47431 -0.192721,0.30709 -0.528436,-0.76769 z M 21.75665,987.8512 c 0.208713,-0.13488 0.49332,-0.24524 0.632461,-0.24524 0.139142,0 0.08222,0.11036 -0.126492,0.24524 -0.208712,0.13488 -0.493319,0.24523 -0.632461,0.24523 -0.139141,0 -0.08222,-0.11035 0.126492,-0.24523 z"
         id="path4243"
         inkscape:connector-curvature="0" />
      <path
         sodipodi:nodetypes="cscsccccssssssssscssscssssssssccscsscsccccscccscsssscscscssscssccssscccccscsscsccsscsssscssssscsssscssssssssssssssssssscsscsssccsscsssccs"
         style="fill:#c9d0d5"
         d="m 26.563352,1041.806 c -0.347853,-0.063 -1.258597,-0.2852 -2.023874,-0.4934 -0.765278,-0.2082 -1.732943,-0.471 -2.150367,-0.5839 -0.417424,-0.113 -1.920821,-0.6439 -3.34088,-1.1798 -2.90953,-1.098 -4.864529,-2.5186 -6.040909,-4.3896 -0.393671,-0.6262 -0.792266,-1.1954 -0.885766,-1.265 -0.416683,-0.31 -2.002199,-2.5654 -2.002325,-2.8482 -7.9e-5,-0.1727 -0.4553874,-1.054 -1.011796,-1.9585 -0.5564086,-0.9044 -1.0117172,-1.7923 -1.0117956,-1.9732 -7.84e-5,-0.1808 -0.1889666,-0.6931 -0.4197515,-1.1384 -1.3165658,-2.5403 -2.6167559,-11.4804 -2.4724663,-17.0006 0.1563949,-5.9835 3.3572232,-16.15276 7.1563514,-22.73636 2.362975,-4.09485 5.415512,-7.6998 8.131956,-9.60358 1.85292,-1.29859 3.727858,-2.3841 4.63512,-2.68352 0.466898,-0.15409 1.230918,-0.562 1.697824,-0.90648 0.519897,-0.38357 1.189835,-0.62631 1.728538,-0.62631 0.483792,0 1.099786,-0.19922 1.368875,-0.44272 1.161147,-1.05071 11.241074,-0.22085 12.490227,1.0283 0.09536,0.0954 0.413073,0.17338 0.706034,0.17338 0.292961,0 0.928584,0.32543 1.412498,0.72318 0.48391,0.39775 1.123293,0.79984 1.420848,0.89354 0.297555,0.0937 0.827302,0.42286 1.177214,0.73148 0.349916,0.30861 0.938762,0.7888 1.308554,1.06708 1.470044,1.10628 3.566874,3.0255 3.844848,3.51919 0.70256,1.24776 -0.12423,0.79541 -2.155105,-1.17909 -4.947594,-4.81027 -8.078275,-6.2182 -14.329924,-6.44447 -4.173983,-0.15108 -6.335618,0.34815 -10.625341,2.45394 -4.360549,2.14055 -7.311801,4.71414 -10.4508,9.11347 -3.325008,4.66002 -7.0768792,14.21621 -8.291849,21.11967 -0.4273158,2.4281 -0.4746745,9.3702 -0.083176,12.1927 0.9597162,6.9191 4.004789,13.987 7.793632,18.0897 0.889361,0.963 2.054139,1.974 2.588394,2.2465 0.534257,0.2726 2.823433,1.1109 5.087064,1.863 3.707232,1.2317 4.404419,1.383 7.025007,1.5242 3.114601,0.1677 7.966711,-0.1049 13.281676,-0.7463 4.220879,-0.5094 6.251331,-1.2668 7.993609,-2.9818 1.500288,-1.4768 1.942973,-1.4391 0.596896,0.051 -0.8579,0.9496 -3.201992,2.2839 -5.301709,3.0177 -1.144538,0.4 -4.423481,0.8336 -4.976555,0.658 -0.267789,-0.085 -0.635168,-0.031 -0.816398,0.119 -0.655953,0.5444 -10.791833,1.0075 -13.054378,0.5964 z m 25.551416,-6.6026 c 0,-0.1149 0.294929,-0.4849 0.655399,-0.8222 l 0.655398,-0.6134 -0.46566,0.8206 c -0.441329,0.7778 -0.845137,1.0716 -0.845137,0.615 z m -16.823457,-2.3439 c -1.113131,-0.1291 -3.162304,-0.3527 -4.553718,-0.4969 -5.854732,-0.6067 -9.199468,-1.5912 -10.983574,-3.233 -1.915772,-1.763 -3.971985,-6.0599 -4.842722,-10.12 -0.81617,-3.8057 -0.928748,-6.1198 -0.4559,-9.3713 0.275242,-1.8927 0.630768,-3.3941 0.898552,-3.7948 0.24371,-0.3646 0.503282,-1.2292 0.576832,-1.9214 0.108232,-1.0186 0.254282,-1.3188 0.766183,-1.575 0.475816,-0.2381 0.632461,-0.5159 0.632461,-1.1216 0,-0.4428 0.142304,-0.8535 0.31623,-0.9126 0.186222,-0.063 0.316231,0.109 0.316231,0.4194 0,0.2899 0.09614,0.5271 0.213635,0.5271 0.117501,0 1.516633,-1.28503 3.109182,-2.85558 3.326402,-3.28045 5.086146,-4.58417 5.908922,-4.37766 0.361641,0.0908 1.313241,-0.25275 2.754303,-0.99427 2.22311,-1.14393 3.318767,-1.36116 4.534314,-0.89901 0.338407,0.12866 1.014158,0.14397 1.501667,0.034 0.579847,-0.13078 1.225777,-0.0818 1.867783,0.14173 0.53977,0.18791 1.309492,0.34336 1.710493,0.34546 1.338276,0.007 5.707232,2.19457 7.231991,3.62114 6.533755,6.11299 9.306256,15.72629 6.964555,24.14879 -0.857159,3.083 -1.437513,4.3913 -2.769485,6.2434 -1.975904,2.7476 -3.044292,3.6017 -6.716992,5.3702 -1.73376,0.8348 -2.115546,0.9198 -4.427225,0.9851 -1.391414,0.039 -3.440587,-0.034 -4.553718,-0.1632 z m 19.3533,-1.2405 c 0,-0.1547 0.284607,-0.7002 0.632461,-1.2121 0.711098,-1.0465 0.801441,-0.9485 0.278796,0.3024 -0.361912,0.8662 -0.911257,1.4146 -0.911257,0.9097 z m 3.948166,-8.7083 c 0.08455,-0.2204 0.26488,-0.4007 0.40073,-0.4007 0.33252,0 0.124301,0.575 -0.25387,0.7011 -0.184868,0.062 -0.241407,-0.054 -0.14686,-0.3004 z m 0.605566,-1.6656 c 0,-0.1391 0.120563,-0.253 0.267916,-0.253 0.147353,0 0.197555,0.1139 0.111561,0.253 -0.08599,0.1392 -0.206557,0.253 -0.267916,0.253 -0.06136,0 -0.111561,-0.1138 -0.111561,-0.253 z m 1.011938,-3.9212 c 0,-0.2087 0.11027,-0.3795 0.245045,-0.3795 0.134773,0 0.179515,0.1708 0.09943,0.3795 -0.08009,0.2087 -0.190361,0.3794 -0.245046,0.3794 -0.05468,0 -0.09943,-0.1707 -0.09943,-0.3794 z m 0.252984,-1.503 c 0,-0.2169 0.113843,-0.3944 0.252984,-0.3944 0.139142,0 0.252985,0.1071 0.252985,0.238 0,0.131 -0.113843,0.3085 -0.252985,0.3944 -0.139141,0.086 -0.252984,-0.021 -0.252984,-0.238 z m 0.252984,-1.7709 c 0,-0.3561 0.113843,-0.6474 0.252985,-0.6474 0.139141,0 0.252984,0.221 0.252984,0.491 0,0.2701 -0.113843,0.5614 -0.252984,0.6474 -0.143483,0.089 -0.252985,-0.1238 -0.252985,-0.491 z m 0.252985,-2.4033 c 0,-0.2865 0.113842,-0.5209 0.252984,-0.5209 0.139141,0 0.252984,0.164 0.252984,0.3645 0,0.2005 -0.113843,0.4349 -0.252984,0.5209 -0.139142,0.086 -0.252984,-0.078 -0.252984,-0.3645 z m 0,-7.6045 c 0,-0.2783 0.113842,-0.506 0.252984,-0.506 0.139141,0 0.252984,0.2277 0.252984,0.506 0,0.2783 -0.113843,0.506 -0.252984,0.506 -0.139142,0 -0.252984,-0.2277 -0.252984,-0.506 z m -0.252985,-2.2769 c 0,-0.1391 0.113843,-0.253 0.252985,-0.253 0.139141,0 0.252984,0.1139 0.252984,0.253 0,0.1392 -0.113843,0.253 -0.252984,0.253 -0.139142,0 -0.252985,-0.1138 -0.252985,-0.253 z m -0.252984,-2.1354 c 0,-0.21693 0.113843,-0.39441 0.252984,-0.39441 0.139142,0 0.252985,0.10712 0.252985,0.23805 0,0.13093 -0.113843,0.30842 -0.252985,0.39441 -0.139141,0.086 -0.252984,-0.0211 -0.252984,-0.23805 z m -1.69777,-7.62456 c -0.14581,-0.63719 -0.173848,-1.0641 -0.06231,-0.94869 0.2255,0.23332 0.616285,2.10722 0.439444,2.10722 -0.06162,0 -0.231324,-0.52134 -0.377134,-1.15853 z m -1.968357,-4.49678 c -0.267258,-0.49627 -0.413928,-0.97431 -0.325935,-1.0623 0.20093,-0.20093 1.018209,1.34556 0.89942,1.70192 -0.04816,0.14447 -0.306228,-0.14336 -0.573485,-0.63962 z m -1.371669,-2.39929 c -0.173726,-0.32461 -0.265947,-0.64013 -0.204929,-0.70114 0.198607,-0.19861 0.739903,0.63405 0.628822,0.96729 -0.06835,0.20505 -0.224025,0.10731 -0.423893,-0.26615 z m -1.766151,-2.34439 c -1.048228,-1.31652 -1.164571,-1.62912 -0.505562,-1.3584 0.413842,0.17 1.858823,2.36633 1.676672,2.54848 -0.06845,0.0684 -0.595452,-0.46708 -1.17111,-1.19008 z"
         id="path4241"
         inkscape:connector-curvature="0" />
      <path
         style="fill:#ffd174"
         d="m 35.291311,1032.8595 c -1.113131,-0.1291 -3.162304,-0.3527 -4.553718,-0.4969 -5.854732,-0.6067 -9.199468,-1.5912 -10.983574,-3.233 -1.915772,-1.763 -3.971985,-6.0599 -4.842722,-10.12 -0.81617,-3.8057 -0.928748,-6.1198 -0.4559,-9.3713 0.275242,-1.8927 0.630768,-3.3941 0.898552,-3.7948 0.24371,-0.3646 0.503282,-1.2292 0.576832,-1.9214 0.108232,-1.0186 0.254282,-1.3188 0.766183,-1.575 0.475816,-0.2381 0.632461,-0.5159 0.632461,-1.1216 0,-0.4428 0.142304,-0.8535 0.31623,-0.9126 0.186222,-0.063 0.316231,0.109 0.316231,0.4194 0,0.2899 0.09614,0.5271 0.213635,0.5271 0.117501,0 1.516633,-1.28503 3.109182,-2.85558 3.326402,-3.28045 5.086146,-4.58417 5.908922,-4.37766 0.361641,0.0908 1.313241,-0.25275 2.754303,-0.99427 2.22311,-1.14393 3.318767,-1.36116 4.534314,-0.89901 0.338407,0.12866 1.014158,0.14397 1.501667,0.034 0.579847,-0.13078 1.225777,-0.0818 1.867783,0.14173 0.53977,0.18791 1.309492,0.34336 1.710493,0.34546 1.338276,0.007 5.707232,2.19457 7.231991,3.62114 6.533755,6.11299 9.306256,15.72629 6.964555,24.14879 -0.857159,3.083 -1.437513,4.3913 -2.769485,6.2434 -1.975904,2.7476 -3.044292,3.6017 -6.716992,5.3702 -1.73376,0.8348 -2.115546,0.9198 -4.427225,0.9851 -1.391414,0.039 -3.440587,-0.034 -4.553718,-0.1632 z"
         id="path4239"
         inkscape:connector-curvature="0" />
      <path
         style="fill:#ffb00e"
         d="m 37.920607,1032.5181 c -0.06125,-0.061 -1.588645,-0.2291 -3.394207,-0.3729 -7.586015,-0.6041 -9.394977,-0.938 -12.394495,-2.2875 -3.600071,-1.6197 -6.083646,-6.6189 -7.063198,-14.2177 -0.270375,-2.0974 -0.33037,-3.388 -0.176325,-3.7932 0.128415,-0.3377 0.316534,-1.5204 0.418039,-2.6282 0.181159,-1.9771 0.657326,-3.4055 1.135216,-3.4055 0.139776,0 0.177795,0.4658 0.09018,1.1051 -0.09965,0.727 -0.04896,1.1684 0.148163,1.2902 0.164797,0.1019 0.363566,0.1213 0.441711,0.043 0.184795,-0.1848 0.149787,-2.0568 -0.06051,-3.2358 -0.134975,-0.7567 -0.06417,-1.0154 0.391253,-1.4294 0.305827,-0.278 0.686971,-0.6452 0.846984,-0.816 0.160012,-0.1708 0.717843,-0.7339 1.239623,-1.2513 0.52178,-0.5175 0.948691,-1.0569 0.948691,-1.1987 0,-0.43758 2.56327,-2.92232 4.427225,-4.29164 1.321904,-0.97111 1.931242,-1.27117 2.403351,-1.18349 0.41813,0.0776 1.307967,-0.23355 2.62578,-0.91829 1.899568,-0.98703 2.095897,-1.03475 4.174241,-1.01471 1.199508,0.0116 2.408608,0.004 2.686891,-0.0174 0.97294,-0.0739 4.063659,0.72316 5.945131,1.53327 3.582903,1.54269 6.270841,4.38306 8.545001,9.02956 1.673812,3.4199 1.997872,4.3774 2.467022,7.2887 0.926871,5.7518 -0.376985,11.3887 -3.655118,15.8021 -1.847557,2.4874 -3.268575,3.7042 -5.49663,4.7067 -2.163246,0.9734 -6.218491,1.7385 -6.694016,1.263 z m 6.857616,-5.8338 c 0,-0.3479 -0.113843,-0.6325 -0.252985,-0.6325 -0.282626,0 -0.346765,0.8339 -0.08433,1.0963 0.278875,0.2789 0.337312,0.1985 0.337312,-0.4638 z m -10.440873,-9.1338 c -0.08407,-0.084 -0.302265,-0.093 -0.484887,-0.02 -0.201813,0.081 -0.141869,0.1407 0.152845,0.1529 0.266686,0.011 0.416106,-0.049 0.332042,-0.1329 z m -7.544561,-5.707 c 0.241934,-0.694 0.219337,-0.7449 -0.297677,-0.6711 -0.633396,0.09 -1.319783,1.2915 -1.086084,1.9005 0.136756,0.3564 0.204196,0.3522 0.637445,-0.04 0.266478,-0.2412 0.60232,-0.7764 0.746316,-1.1895 z m 1.541454,-1.8773 c 0,-0.4467 -0.544615,-0.3689 -0.700977,0.1002 -0.05508,0.1652 0.08011,0.3004 0.300419,0.3004 0.220306,0 0.400558,-0.1803 0.400558,-0.4006 z m -3.028999,-7.7581 c 0.55397,-1.2205 0.641603,-2.0503 0.200998,-1.9034 -0.163984,0.055 -0.420131,0.3189 -0.569214,0.5873 -0.149082,0.2684 -0.470865,0.7616 -0.715076,1.0959 -0.336975,0.4614 -0.375249,0.6908 -0.158763,0.9516 0.464222,0.5594 0.726146,0.4051 1.242055,-0.7314 z m 5.742531,-4.40913 c 0.109413,-0.32823 -1.399241,-1.15369 -1.732323,-0.94784 -0.245058,0.15146 -0.302435,0.95493 -0.08381,1.17356 0.248815,0.24882 1.718854,0.0661 1.816129,-0.22572 z"
         id="path4237"
         inkscape:connector-curvature="0" />
      <path
         style="fill:#ff850c"
         d="m 24.242502,1029.4105 c -1.647517,-0.1739 -1.959115,-1.4873 -0.438035,-1.8464 0.814453,-0.1923 0.831884,-1.1011 0.02333,-1.2157 -0.378222,-0.054 -0.79897,0.1477 -1.189596,0.5692 -0.678782,0.7324 -1.422976,0.8396 -1.893474,0.2727 -0.173215,-0.2088 -0.449429,-0.3795 -0.61381,-0.3795 -0.164379,0 -0.651177,-0.37 -1.081771,-0.8222 -0.786592,-0.8261 -1.512978,-2.3753 -2.105523,-4.4905 -0.175402,-0.6261 -0.526794,-1.594 -0.780869,-2.1507 -0.801679,-1.7567 -1.32771,-7.2202 -0.730697,-7.5892 0.139141,-0.086 0.252984,-0.5832 0.252984,-1.105 0,-0.5218 0.167144,-1.1696 0.371432,-1.4397 0.204285,-0.2701 0.375049,-0.4017 0.379476,-0.2925 0.0044,0.1093 0.234959,0.077 0.512301,-0.071 0.315168,-0.1687 0.564026,-0.6436 0.663651,-1.2667 0.101948,-0.6375 0.32124,-1.0481 0.608448,-1.1393 0.664157,-0.2108 0.808608,-2.1013 0.186019,-2.4345 -0.422256,-0.226 -0.398992,-0.3045 0.296354,-0.9998 0.415018,-0.4151 1.138692,-0.9151 1.608168,-1.1113 0.469475,-0.1961 1.000773,-0.534 1.18066,-0.7507 0.179887,-0.2168 0.540814,-0.3941 0.802059,-0.3941 0.56696,0 0.632964,-0.4612 0.09552,-0.6675 -0.552899,-0.21214 -0.464646,-0.85041 0.117593,-0.85041 0.273385,0 0.629187,-0.25615 0.790669,-0.56921 0.486405,-0.943 1.757098,-1.99186 2.230935,-1.84147 0.237592,0.0754 0.880623,-0.0811 1.428956,-0.34783 1.206844,-0.58702 1.729942,-0.37146 1.785629,0.73582 0.04948,0.98383 0.227534,1.15814 1.394503,1.3652 0.78247,0.13883 0.937423,0.0874 1.051499,-0.34879 0.07765,-0.29693 0.344701,-0.51163 0.636377,-0.51163 0.276423,0 0.568114,-0.17076 0.648206,-0.37947 0.105204,-0.27416 -0.02771,-0.37948 -0.478901,-0.37948 -1.108082,0 -0.61668,-0.79318 0.683543,-1.10332 0.734246,-0.17514 1.474762,0.0114 1.474762,0.37144 0,0.12425 -0.237173,0.46309 -0.52705,0.75296 -1.10434,1.10434 0.357932,0.78277 1.719767,-0.3782 0.418555,-0.35682 0.52619,-0.64736 0.410533,-1.10817 -0.15575,-0.62055 -0.147191,-0.62378 1.333609,-0.50315 1.132404,0.0923 1.854944,0.34319 3.008272,1.0448 2.004999,1.2197 2.394125,1.4826 2.880019,1.94575 0.224827,0.21431 1.11918,0.99305 1.98745,1.73053 1.644244,1.39653 2.745606,2.82283 3.344318,4.33093 0.193341,0.487 0.538672,1.17 0.767405,1.5179 0.228734,0.3479 0.67753,1.2586 0.997323,2.0239 0.744067,1.7806 1.007072,5.932 0.510547,8.0587 -0.183396,0.7855 -0.377961,1.229 -0.432365,0.9855 -0.0544,-0.2435 -0.264907,-0.4428 -0.467783,-0.4428 -0.482838,0 -0.767003,0.7561 -0.375181,0.9983 0.344264,0.2127 0.112667,1.5481 -0.317174,1.8288 -0.143806,0.094 -0.284645,0.5056 -0.312977,0.9148 -0.08596,1.2416 -0.395844,2.4059 -0.911411,3.4242 -0.477711,0.9436 -0.50543,0.9579 -1.098656,0.5692 -0.937926,-0.6145 -1.502782,-0.4836 -2.453527,0.5688 -1.002855,1.11 -3.086849,2.3613 -3.60293,2.1633 -0.192194,-0.074 -0.413682,-0.3015 -0.492193,-0.5061 -0.106102,-0.2765 -0.369512,-0.3295 -1.025993,-0.2063 -0.725822,0.1361 -1.02295,0.048 -1.667111,-0.4939 -0.431128,-0.3628 -0.987469,-0.6596 -1.236312,-0.6596 -0.642471,0 -1.841647,1.0069 -1.685078,1.415 0.0722,0.1881 -0.08037,0.4903 -0.339037,0.6715 -0.258668,0.1811 -0.510049,0.5995 -0.558617,0.9297 -0.107204,0.7289 -0.74516,1.1734 -1.350503,0.9411 -0.360389,-0.1383 -0.415636,-0.3579 -0.289106,-1.1491 0.179192,-1.1206 -0.03548,-1.3868 -1.35802,-1.6835 -1.296539,-0.291 -1.715473,-0.3047 -2.078392,-0.068 -0.248737,0.1622 -0.19839,0.3154 0.214647,0.6528 2.442875,1.9959 0.247993,3.4157 -4.504854,2.9141 z m -1.094438,-3.8646 c -0.122399,-0.1981 -0.267928,-0.2128 -0.436585,-0.044 -0.139141,0.1391 -0.170362,0.3866 -0.06938,0.55 0.122398,0.1981 0.267928,0.2128 0.436585,0.044 0.139139,-0.1391 0.170362,-0.3867 0.06938,-0.55 z m 19.859269,-1.9124 c 0,-0.4174 -0.399827,-0.4879 -0.632461,-0.1115 -0.206311,0.3338 0.09619,0.8075 0.396957,0.6216 0.129526,-0.08 0.235504,-0.3096 0.235504,-0.5101 z m -25.551416,-4.0539 c 0,-0.4467 -0.544614,-0.3689 -0.700976,0.1002 -0.05508,0.1652 0.08011,0.3004 0.300419,0.3004 0.220306,0 0.400557,-0.1802 0.400557,-0.4006 z m 17.392672,-1.5297 c 0.782133,-0.2096 0.713689,-0.4341 -0.242425,-0.795 -0.948509,-0.358 -1.477618,-0.05 -0.968148,0.5642 0.362081,0.4363 0.409728,0.4454 1.210573,0.2308 z m -8.348483,-5.6529 c 0.69317,-1.023 0.711567,-1.2712 0.09422,-1.2712 -0.616953,0 -0.999782,0.48 -1.206303,1.5126 -0.213693,1.0685 0.300153,0.9569 1.112081,-0.2414 z m 7.652776,-1.0183 c 0,-0.1391 -0.113843,-0.2529 -0.252985,-0.2529 -0.139141,0 -0.252984,0.1138 -0.252984,0.2529 0,0.1392 0.113843,0.253 0.252984,0.253 0.139142,0 0.252985,-0.1138 0.252985,-0.253 z m -5.818639,-1.4125 c 0,-0.4467 -0.544615,-0.3689 -0.700977,0.1002 -0.05508,0.1652 0.08011,0.3004 0.300419,0.3004 0.220306,0 0.400558,-0.1803 0.400558,-0.4006 z m -2.91778,-7.9796 c 0.570864,-1.2321 0.609953,-1.99216 0.102461,-1.99216 -0.127238,0 -0.364469,0.31306 -0.527181,0.69576 -0.162712,0.3826 -0.50502,0.9341 -0.760681,1.2255 -0.268798,0.3065 -0.397064,0.7066 -0.30413,0.9487 0.297105,0.7743 0.884509,0.4281 1.489531,-0.8778 z"
         id="path4235"
         inkscape:connector-curvature="0" />
      <path
         style="fill:#ff610c"
         d="m 31.726828,1021.5925 c 0.08686,-0.2263 0.05781,-0.5394 -0.06454,-0.6957 -0.122356,-0.1563 -0.297254,-0.5972 -0.38866,-0.9798 -0.09494,-0.3975 -0.338589,-0.6957 -0.568279,-0.6957 -0.31114,0 -0.36368,0.1573 -0.23229,0.6957 0.500279,2.0498 0.507127,1.914 -0.08068,1.5994 -0.297128,-0.159 -0.540231,-0.3989 -0.540231,-0.5332 0,-0.1342 -0.113843,-0.244 -0.252984,-0.244 -0.139141,0 -0.252984,0.1707 -0.252984,0.3794 0,0.9029 -3.577441,-0.089 -4.550523,-1.261 -0.174971,-0.2109 -0.522594,-0.3834 -0.772492,-0.3834 -0.59547,0 -1.410155,-1.3458 -1.760189,-2.9077 -0.188046,-0.8391 -0.6523,-1.6999 -1.419209,-2.6315 -1.016876,-1.2351 -1.123099,-1.4829 -0.985334,-2.2983 0.122245,-0.7236 0.04743,-1.0108 -0.359134,-1.3787 -0.282449,-0.2557 -0.437098,-0.5885 -0.343661,-0.7397 0.09343,-0.1511 0.186513,-1.0182 0.20684,-1.9268 0.03594,-1.6066 0.537108,-3.0498 1.209503,-3.483 0.164574,-0.106 0.52691,-0.6401 0.805193,-1.1868 0.278283,-0.5467 0.88205,-1.2161 1.341702,-1.4876 0.459655,-0.2715 1.02887,-0.9026 1.264922,-1.4025 0.53744,-1.13809 1.372597,-1.57869 2.832539,-1.49434 l 1.138429,0.0658 -0.08303,0.94869 c -0.07954,0.90875 -0.05027,0.94865 0.695706,0.94865 0.61183,0 0.778737,0.1092 0.778737,0.5094 0,0.2802 -0.137996,0.7304 -0.306655,1.0004 -0.357189,0.572 -0.144667,0.8973 0.439679,0.6731 0.263372,-0.1011 0.354178,-0.3256 0.256357,-0.6338 -0.09641,-0.3037 -0.0085,-0.5321 0.241754,-0.6281 0.277878,-0.1067 0.346257,-0.3381 0.2331,-0.7889 -0.133255,-0.531 -0.07061,-0.63803 0.37326,-0.63803 0.293369,0 0.533395,0.11383 0.533395,0.25293 0,0.3431 0.939207,0.3224 1.15418,-0.025 0.09866,-0.1596 0.487268,-0.2154 0.910648,-0.1307 0.406196,0.081 0.95458,0.013 1.218627,-0.1521 0.377612,-0.23583 0.622704,-0.22349 1.148263,0.0578 0.39945,0.2138 1.285786,0.3405 2.203825,0.3151 1.3733,-0.038 1.718869,0.064 3.268694,0.9696 0.953172,0.5567 1.733041,1.1779 1.733041,1.3804 0,0.2026 0.166902,0.3684 0.370893,0.3684 0.203991,0 0.785299,0.1976 1.291791,0.4391 0.698692,0.3332 1.129937,0.8368 1.787251,2.0871 0.476496,0.9064 1.215835,2.1174 1.642976,2.6912 0.547721,0.7357 0.807655,1.4068 0.881923,2.2768 0.05792,0.6786 0.174051,1.6716 0.258072,2.2068 0.133179,0.8484 0.09351,0.9617 -0.3094,0.8842 -0.254186,-0.049 -0.531694,-0.3731 -0.616684,-0.7202 -0.146774,-0.5995 -0.170519,-0.5835 -0.473433,0.3176 -0.20729,0.6166 -0.474924,0.9487 -0.764652,0.9487 -0.245157,0 -0.577857,0.2899 -0.739332,0.6443 -0.35992,0.79 -0.387114,2.3915 -0.04061,2.3915 0.139142,0 0.252985,0.1707 0.252985,0.3795 0,0.2087 -0.170765,0.3794 -0.379477,0.3794 -0.392713,0 -0.405508,0.023 -0.502171,0.9165 -0.08362,0.7727 -0.912634,1.8099 -1.648196,2.0621 -0.347853,0.1192 -1.754468,0.1397 -3.125813,0.045 -2.409625,-0.1656 -2.633683,-0.2481 -3.060495,-1.1266 -0.06896,-0.1419 -0.254391,-0.075 -0.422434,0.1531 -0.243434,0.3301 -0.434356,0.3552 -1.01963,0.1343 -0.792494,-0.2991 -0.898588,-0.5363 -0.377564,-0.844 0.188397,-0.1113 0.472757,-0.4505 0.631904,-0.7539 0.15915,-0.3033 0.536841,-0.5879 0.839316,-0.6324 0.302476,-0.045 0.595682,-0.2199 0.651574,-0.3896 0.137793,-0.4185 -1.416196,-1.3336 -2.266702,-1.3348 -0.836421,0 -1.307377,-0.7552 -1.089955,-1.7451 0.108733,-0.4951 0.0069,-0.8829 -0.344678,-1.3133 -0.641333,-0.7851 -0.884648,-0.53 -1.384062,1.4508 -0.559126,2.2176 -0.335994,3.1821 1.010424,4.3672 0.902633,0.7945 1.040383,1.0248 0.754895,1.2617 -0.192063,0.1594 -0.417001,0.6288 -0.499864,1.0431 -0.141122,0.7056 -0.224802,0.7533 -1.322475,0.7533 -0.97826,0 -1.145736,-0.068 -1.013898,-0.4116 z m -6.924811,-2.7622 c 0.178471,-0.2151 0.466142,-0.3367 0.639272,-0.2702 0.456576,0.1752 0.271239,-1.057 -0.235149,-1.5634 -0.547997,-0.548 -0.87587,-0.1847 -1.044499,1.1574 -0.139395,1.1094 0.08455,1.3459 0.640376,0.6762 z m 16.68741,-3.6717 c 0,-0.5605 -0.636696,-0.6686 -0.83861,-0.1424 -0.15319,0.3992 0.307376,0.9617 0.626123,0.7647 0.116869,-0.072 0.212487,-0.3523 0.212487,-0.6223 z m -14.420106,-1.25 c 0,-0.1392 -0.170764,-0.253 -0.379476,-0.253 -0.208713,0 -0.379477,0.1138 -0.379477,0.253 0,0.1391 0.170764,0.253 0.379477,0.253 0.208712,0 0.379476,-0.1139 0.379476,-0.253 z m -0.758953,-0.759 c 0.278283,-0.2783 0.505969,-0.6223 0.505969,-0.7646 0,-0.1422 0.462258,-0.7601 1.02724,-1.373 0.564985,-0.613 1.000659,-1.265 0.968171,-1.449 -0.03249,-0.1841 0.09296,-0.6482 0.278776,-1.0314 0.185814,-0.3832 0.265183,-0.7694 0.176373,-0.8583 -0.242377,-0.2423 -0.932654,0.4186 -0.932654,0.893 0,0.228 -0.625297,0.9134 -1.38955,1.5233 -1.297033,1.035 -1.892504,2.0546 -1.897835,3.2498 -0.002,0.4821 0.696549,0.3772 1.26351,-0.1898 z m 2.596462,-0.8222 c 0.681565,-1.1807 1.072114,-2.4666 0.749139,-2.4666 -0.312678,0 -2.080679,2.406 -2.080679,2.8315 0,0.4037 0.226221,0.7103 0.524092,0.7103 0.102732,0 0.466081,-0.4838 0.807448,-1.0752 z m 3.05757,0.7038 c 0.162211,-0.4227 -0.21469,-0.7487 -0.594346,-0.514 -0.378247,0.2337 -0.305071,0.8854 0.09943,0.8854 0.193826,0 0.416538,-0.1671 0.49492,-0.3714 z m 2.929341,-0.7577 c 0.762201,-0.3941 1.178191,-1.1008 0.844459,-1.4345 -0.111186,-0.1112 -0.563593,-0.2297 -1.005347,-0.2634 -0.847239,-0.064 -1.844893,0.6006 -1.844893,1.23 0,0.2737 0.62623,0.6976 1.214239,0.822 0.04169,0.01 0.397888,-0.1505 0.791542,-0.3541 z m -4.28264,-4.1091 c 0,-0.598 -0.62433,-0.2171 -0.720003,0.4392 -0.07643,0.5243 -0.0363,0.558 0.31623,0.2655 0.222075,-0.1843 0.403773,-0.5015 0.403773,-0.7047 z m -4.174241,-3.1103 c 0,-0.1855 -0.142303,-0.3847 -0.31623,-0.4427 -0.188117,-0.063 -0.316231,0.1167 -0.316231,0.4427 0,0.3261 0.128114,0.5055 0.316231,0.4428 0.173927,-0.058 0.31623,-0.2572 0.31623,-0.4428 z m -0.66757,-2.9318 c 0.63576,-1.6613 0.72693,-3.39278 0.17865,-3.39278 -0.199336,0 -0.442037,0.25615 -0.539337,0.56922 -0.0973,0.31306 -0.567502,1.16096 -1.044894,1.88426 -0.722313,1.0944 -0.821364,1.4022 -0.590192,1.8342 0.1579,0.295 0.531763,0.519 0.866244,0.519 0.481211,0 0.687057,-0.2576 1.129529,-1.4139 z m 12.178356,-0.4984 c 0,-0.2169 -0.113843,-0.324 -0.252984,-0.238 -0.139141,0.086 -0.252984,0.2634 -0.252984,0.3944 0,0.1309 0.113843,0.238 0.252984,0.238 0.139141,0 0.252984,-0.1775 0.252984,-0.3944 z m 9.529077,16.6697 c -0.09276,-0.093 -0.168657,-0.2863 -0.168657,-0.43 0,-0.1586 0.117832,-0.1436 0.299364,0.038 0.164652,0.1647 0.240547,0.3582 0.168657,0.4301 -0.07189,0.072 -0.206605,0.055 -0.299364,-0.038 z"
         id="path4233"
         inkscape:connector-curvature="0" />
    </g>
  </g>
</svg>
