<?xml version="1.0" encoding="UTF-8" standalone="no"?>
<!-- Created with Inkscape (http://www.inkscape.org/) -->

<svg
   xmlns:dc="http://purl.org/dc/elements/1.1/"
   xmlns:cc="http://creativecommons.org/ns#"
   xmlns:rdf="http://www.w3.org/1999/02/22-rdf-syntax-ns#"
   xmlns:svg="http://www.w3.org/2000/svg"
   xmlns="http://www.w3.org/2000/svg"
   xmlns:sodipodi="http://sodipodi.sourceforge.net/DTD/sodipodi-0.dtd"
   xmlns:inkscape="http://www.inkscape.org/namespaces/inkscape"
   width="24mm"
   height="24mm"
   viewBox="0 0 85.039371 85.039369"
   id="svg2"
   version="1.1"
   inkscape:version="0.91 r13725"
   sodipodi:docname="yudetamago_icon.svg"
   inkscape:export-filename="/home/yoshitake/public_html/yudetamago_webapp/yudetamago_logo.png"
   inkscape:export-xdpi="432.733"
   inkscape:export-ydpi="432.733">
  <defs
     id="defs4" />
  <sodipodi:namedview
     id="base"
     pagecolor="#ffffff"
     bordercolor="#666666"
     borderopacity="1.0"
     inkscape:pageopacity="0.0"
     inkscape:pageshadow="2"
     inkscape:zoom="3.959798"
     inkscape:cx="93.300126"
     inkscape:cy="47.198841"
     inkscape:document-units="mm"
     inkscape:current-layer="layer1"
     showgrid="true"
     inkscape:snap-global="true"
     inkscape:window-width="1024"
     inkscape:window-height="704"
     inkscape:window-x="0"
     inkscape:window-y="27"
     inkscape:window-maximized="1"
     inkscape:snap-nodes="true"
     inkscape:snap-bbox="false"
     inkscape:bbox-nodes="true"
     inkscape:snap-bbox-midpoints="false"
     inkscape:snap-grids="false"
     inkscape:object-paths="true"
     inkscape:snap-object-midpoints="true">
    <inkscape:grid
       type="xygrid"
       id="grid4136" />
  </sodipodi:namedview>
  <metadata
     id="metadata7">
    <rdf:RDF>
      <cc:Work
         rdf:about="">
        <dc:format>image/svg+xml</dc:format>
        <dc:type
           rdf:resource="http://purl.org/dc/dcmitype/StillImage" />
        <dc:title></dc:title>
      </cc:Work>
    </rdf:RDF>
  </metadata>
  <g
     inkscape:label="Layer 1"
     inkscape:groupmode="layer"
     id="layer1"
     transform="translate(0,-967.32287)">
    <g
       id="g4192"
       transform="translate(-2.2728426,7.5760446)">
      <rect
         y="959.74683"
         x="2.2728426"
         height="85.039368"
         width="85.039368"
         id="rect4153"
         style="opacity:1;fill:#ff9900;fill-opacity:1;stroke:none;stroke-width:2;stroke-linejoin:miter;stroke-miterlimit:4;stroke-dasharray:none;stroke-opacity:1" />
      <path
         sodipodi:nodetypes="cscscccsssssscsssssssccsssssssccscssccccccscccsccssscscscssccscccccsscccsccscsccssssscscscsssssssscsssssssssssssssssssssccsccscccsccssscs"
         style="fill:#ffffff;fill-opacity:1;stroke:none;stroke-opacity:1"
         d="m 38.022265,1037.3419 c -0.34786,-0.063 -1.2586,-0.2852 -2.02388,-0.4934 -0.76527,-0.2082 -1.73294,-0.471 -2.15036,-0.5839 -0.41743,-0.113 -1.92082,-0.6439 -3.34088,-1.1798 -2.90953,-1.098 -4.86453,-2.5186 -6.04091,-4.3897 -0.39367,-0.6261 -0.79227,-1.1953 -0.88577,-1.2649 -0.41668,-0.31 -2.0022,-2.5654 -2.00232,-2.8482 -8e-5,-0.1728 -0.45539,-1.0541 -1.011799,-1.9585 -0.556409,-0.9044 -1.011717,-1.7923 -1.011796,-1.9732 -7.8e-5,-0.1808 -0.188966,-0.6931 -0.419751,-1.1384 -1.316566,-2.5403 -2.616756,-11.4804 -2.472466,-17.0006 0.156394,-5.98351 3.357223,-16.15277 7.156352,-22.73639 2.36297,-4.09485 5.41551,-7.6998 8.13195,-9.60358 1.85293,-1.29859 3.72786,-2.3841 4.63513,-2.68352 0.46689,-0.15409 1.23091,-0.562 1.69782,-0.90648 0.5199,-0.38357 1.18983,-0.62631 1.72854,-0.62631 0.48379,0 1.09978,-0.19922 1.36887,-0.44272 1.16115,-1.05071 11.24108,-0.22085 12.49023,1.0283 0.0954,0.0954 0.41307,0.17338 0.70603,0.17338 0.29296,0 0.92859,0.32543 1.4125,0.72318 0.48391,0.39774 1.12329,0.79984 1.42085,0.89354 0.29755,0.0937 0.8273,0.42286 1.17721,0.73148 0.34992,0.30861 0.93876,0.7888 1.30856,1.06708 1.47004,1.10628 3.56687,3.0255 3.84485,3.51919 0.70256,1.24776 -0.12424,0.79541 -2.15511,-1.17909 -4.94759,-4.81027 -8.07827,-6.2182 -14.32992,-6.44447 -4.17399,-0.15108 -6.33562,0.34815 -10.62535,2.45394 -4.36054,2.14055 -7.3118,4.71414 -10.45079,9.11347 -3.32501,4.66002 -7.076884,14.21619 -8.291854,21.1197 -0.427316,2.4281 -0.474675,9.3702 -0.08318,12.1927 0.959716,6.9191 4.004794,13.9869 7.793634,18.0897 0.88936,0.963 2.05414,1.9739 2.5884,2.2465 0.53425,0.2725 2.82343,1.1109 5.08706,1.863 3.70723,1.2317 4.40442,1.383 7.02501,1.5241 3.1146,0.1678 7.96671,-0.1048 13.28167,-0.7462 4.22088,-0.5094 6.25133,-1.2668 7.99361,-2.9818 1.50029,-1.4768 1.94297,-1.4391 0.5969,0.051 -0.8579,0.9496 -3.20199,2.2838 -5.30171,3.0177 -1.14454,0.4 -4.42348,0.8335 -4.97656,0.658 -0.26779,-0.085 -0.63516,-0.031 -0.81639,0.119 -0.65596,0.5443 -10.79184,1.0075 -13.05438,0.5964 z m 25.55141,-6.6027 c 0,-0.1148 0.29493,-0.4848 0.6554,-0.8222 l 0.6554,-0.6133 -0.46566,0.8206 c -0.44133,0.7777 -0.84514,1.0716 -0.84514,0.6149 z m -16.82345,-2.3438 c -1.11313,-0.1291 -3.16231,-0.3527 -4.55372,-0.4969 -5.85473,-0.6067 -9.19947,-1.5912 -10.98357,-3.233 -1.91578,-1.763 -3.97199,-6.06 -4.84273,-10.1201 -0.81617,-3.8056 -0.92875,-6.1197 -0.4559,-9.3712 0.27524,-1.8927 0.63077,-3.3941 0.89856,-3.7948 0.2437,-0.3646 0.50328,-1.2292 0.57683,-1.92141 0.10823,-1.0186 0.25428,-1.3189 0.76618,-1.5751 0.47582,-0.2381 0.63246,-0.5159 0.63246,-1.1215 0,-0.4428 0.1423,-0.8535 0.31623,-0.9127 0.18622,-0.063 0.31623,0.1091 0.31623,0.4195 0,0.2898 0.0961,0.527 0.21364,0.527 0.1175,0 1.51663,-1.285 3.10918,-2.8555 3.3264,-3.28046 5.08615,-4.58416 5.90892,-4.37766 0.36164,0.091 1.31324,-0.2528 2.7543,-0.9943 2.22311,-1.1439 3.31877,-1.3611 4.53432,-0.899 0.3384,0.1287 1.01416,0.144 1.50166,0.034 0.57985,-0.1308 1.22578,-0.082 1.86779,0.1417 0.53977,0.188 1.30949,0.3434 1.71049,0.3455 1.33828,0.01 5.70723,2.1946 7.23199,3.6211 6.53376,6.11296 9.30626,15.72637 6.96456,24.14887 -0.85716,3.0829 -1.43752,4.3913 -2.76949,6.2434 -1.9759,2.7475 -3.04429,3.6017 -6.71699,5.3702 -1.73376,0.8348 -2.11555,0.9198 -4.42723,0.9851 -1.39141,0.039 -3.44058,-0.034 -4.55371,-0.1632 z m 19.3533,-1.2405 c 0,-0.1548 0.2846,-0.7002 0.63246,-1.2121 0.7111,-1.0465 0.80144,-0.9485 0.27879,0.3024 -0.36191,0.8661 -0.91125,1.4146 -0.91125,0.9097 z m 3.94777,-8.7084 c 0.0846,-0.2203 0.26488,-0.4006 0.40073,-0.4006 0.33252,0 0.1243,0.575 -0.25387,0.7011 -0.18487,0.062 -0.24141,-0.054 -0.14686,-0.3005 z m 0.60556,-1.6655 c 0,-0.1391 0.12057,-0.253 0.26792,-0.253 0.14735,0 0.19756,0.1139 0.11156,0.253 -0.086,0.1391 -0.20656,0.253 -0.26791,0.253 -0.0614,0 -0.11157,-0.1139 -0.11157,-0.253 z m 1.01194,-3.9213 c 0,-0.2087 0.11027,-0.3794 0.24505,-0.3794 0.13477,0 0.17951,0.1707 0.0994,0.3794 -0.0801,0.2088 -0.19036,0.3795 -0.24504,0.3795 -0.0547,0 -0.0994,-0.1707 -0.09941,-0.3795 z m 0.25299,-1.5029 c 0,-0.2169 0.11384,-0.3944 0.25298,-0.3944 0.13914,0 0.25298,0.1071 0.25298,0.238 0,0.1309 -0.11384,0.3084 -0.25298,0.3944 -0.13914,0.086 -0.25298,-0.021 -0.25298,-0.238 z m 0.25298,-1.7709 c 0,-0.3561 0.11384,-0.6474 0.25298,-0.6474 0.13915,0 0.25299,0.221 0.25299,0.491 0,0.2701 -0.11384,0.5614 -0.25299,0.6474 -0.14348,0.089 -0.25298,-0.1238 -0.25298,-0.491 z m 0.25298,-2.4034 c 0,-0.2865 0.11385,-0.5209 0.25299,-0.5209 0.13914,0 0.25298,0.1641 0.25298,0.3646 0,0.2005 -0.11384,0.4349 -0.25298,0.5209 -0.13914,0.086 -0.25299,-0.078 -0.25299,-0.3646 z m 0,-7.60441 c 0,-0.2784 0.11385,-0.506 0.25299,-0.506 0.13914,0 0.25298,0.2276 0.25298,0.506 0,0.2783 -0.11384,0.50591 -0.25298,0.50591 -0.13914,0 -0.25299,-0.22761 -0.25299,-0.50591 z m -0.25298,-2.2769 c 0,-0.1392 0.11384,-0.253 0.25298,-0.253 0.13915,0 0.25299,0.1138 0.25299,0.253 0,0.1391 -0.11384,0.253 -0.25299,0.253 -0.13914,0 -0.25298,-0.1139 -0.25298,-0.253 z m -0.25298,-2.1355 c 0,-0.2169 0.11384,-0.3944 0.25298,-0.3944 0.13914,0 0.25298,0.1071 0.25298,0.2381 0,0.1309 -0.11384,0.3084 -0.25298,0.3944 -0.13914,0.086 -0.25298,-0.021 -0.25298,-0.2381 z m -1.69777,-7.62446 c -0.14581,-0.6372 -0.17385,-1.0641 -0.0623,-0.9487 0.2255,0.2333 0.61628,2.1072 0.43944,2.1072 -0.0616,0 -0.23132,-0.5213 -0.37714,-1.1585 z m -1.96836,-4.4968 c -0.26726,-0.49627 -0.41393,-0.97431 -0.32594,-1.0623 0.20093,-0.20093 1.01821,1.34556 0.89942,1.70192 -0.0481,0.14446 -0.30622,-0.14337 -0.57348,-0.63963 z m -1.37167,-2.39929 c -0.17373,-0.32461 -0.26595,-0.64013 -0.20493,-0.70114 0.19861,-0.19861 0.7399,0.63405 0.62882,0.96729 -0.0683,0.20505 -0.22402,0.10731 -0.42389,-0.26615 z m -1.76615,-2.34439 c -1.04823,-1.31652 -1.16457,-1.62912 -0.50556,-1.3584 0.41384,0.17 1.85882,2.36633 1.67667,2.54848 -0.0685,0.0684 -0.59545,-0.46708 -1.17111,-1.19008 z"
         id="path4241-5"
         inkscape:connector-curvature="0" />
    </g>
  </g>
</svg>
