<?xml version="1.0" encoding="UTF-8" standalone="no"?>
<!-- Created with Inkscape (http://www.inkscape.org/) -->

<svg
   xmlns:dc="http://purl.org/dc/elements/1.1/"
   xmlns:cc="http://creativecommons.org/ns#"
   xmlns:rdf="http://www.w3.org/1999/02/22-rdf-syntax-ns#"
   xmlns:svg="http://www.w3.org/2000/svg"
   xmlns="http://www.w3.org/2000/svg"
   xmlns:sodipodi="http://sodipodi.sourceforge.net/DTD/sodipodi-0.dtd"
   xmlns:inkscape="http://www.inkscape.org/namespaces/inkscape"
   width="152mm"
   height="28mm"
   viewBox="0 0 538.58268 99.212597"
   id="svg2"
   version="1.1"
   inkscape:version="0.91 r13725"
   sodipodi:docname="yudetamago_logo.svg"
   inkscape:export-filename="/home/yoshitake/public_html/yudetamago_webapp/yudetamago_logo.png"
   inkscape:export-xdpi="432.733"
   inkscape:export-ydpi="432.733">
  <defs
     id="defs4" />
  <sodipodi:namedview
     id="base"
     pagecolor="#ffffff"
     bordercolor="#666666"
     borderopacity="1.0"
     inkscape:pageopacity="0.0"
     inkscape:pageshadow="2"
     inkscape:zoom="0.7"
     inkscape:cx="115.73678"
     inkscape:cy="-57.906391"
     inkscape:document-units="mm"
     inkscape:current-layer="layer1"
     showgrid="true"
     inkscape:snap-global="true"
     inkscape:window-width="1024"
     inkscape:window-height="704"
     inkscape:window-x="0"
     inkscape:window-y="27"
     inkscape:window-maximized="1"
     inkscape:snap-nodes="true"
     inkscape:snap-bbox="true"
     inkscape:bbox-nodes="true"
     inkscape:snap-bbox-midpoints="false"
     inkscape:snap-grids="false">
    <inkscape:grid
       type="xygrid"
       id="grid4136" />
  </sodipodi:namedview>
  <metadata
     id="metadata7">
    <rdf:RDF>
      <cc:Work
         rdf:about="">
        <dc:format>image/svg+xml</dc:format>
        <dc:type
           rdf:resource="http://purl.org/dc/dcmitype/StillImage" />
        <dc:title />
      </cc:Work>
    </rdf:RDF>
  </metadata>
  <g
     inkscape:label="Layer 1"
     inkscape:groupmode="layer"
     id="layer1"
     transform="translate(0,-953.14964)">
    <path
       inkscape:connector-curvature="0"
       id="path4241-5"
       d="m 29.370927,1035.6709 c -0.34786,-0.063 -1.2586,-0.2852 -2.02388,-0.4934 -0.76527,-0.2082 -1.73294,-0.471 -2.15036,-0.5839 -0.41743,-0.113 -1.92082,-0.6439 -3.34088,-1.1798 -2.90953,-1.098 -4.86453,-2.5186 -6.04091,-4.3897 -0.39367,-0.6261 -0.79227,-1.1953 -0.88577,-1.2649 -0.41668,-0.31 -2.0022,-2.5654 -2.00232,-2.8482 -8e-5,-0.1728 -0.45539,-1.0541 -1.011799,-1.9585 -0.556409,-0.9044 -1.011717,-1.7923 -1.011796,-1.9732 -7.8e-5,-0.1808 -0.188966,-0.6931 -0.419751,-1.1384 -1.316566,-2.5403 -2.616756,-11.4804 -2.472466,-17.0006 0.156394,-5.9835 3.357223,-16.15276 7.156352,-22.73638 2.36297,-4.09485 5.41551,-7.6998 8.13195,-9.60358 1.85293,-1.29859 3.72786,-2.3841 4.63513,-2.68352 0.46689,-0.15409 1.23091,-0.562 1.69782,-0.90648 0.5199,-0.38357 1.18983,-0.62631 1.72854,-0.62631 0.48379,0 1.09978,-0.19922 1.36887,-0.44272 1.16115,-1.05071 11.24108,-0.22085 12.49023,1.0283 0.0954,0.0954 0.41307,0.17338 0.70603,0.17338 0.29296,0 0.92859,0.32543 1.4125,0.72318 0.48391,0.39774 1.12329,0.79984 1.42085,0.89354 0.29755,0.0937 0.8273,0.42286 1.17721,0.73148 0.34992,0.30861 0.93876,0.7888 1.30856,1.06708 1.47004,1.10628 3.56687,3.0255 3.84485,3.51919 0.70256,1.24776 -0.12424,0.79541 -2.15511,-1.17909 -4.94759,-4.81027 -8.07827,-6.2182 -14.32992,-6.44447 -4.17399,-0.15108 -6.33562,0.34815 -10.62535,2.45394 -4.36054,2.14055 -7.3118,4.71414 -10.45079,9.11347 -3.32501,4.66002 -7.076884,14.21619 -8.291854,21.11969 -0.427316,2.4281 -0.474675,9.3702 -0.08318,12.1927 0.959716,6.9191 4.004794,13.9869 7.793634,18.0897 0.88936,0.963 2.05414,1.9739 2.5884,2.2465 0.53425,0.2725 2.82343,1.1109 5.08706,1.863 3.70723,1.2317 4.40442,1.383 7.02501,1.5241 3.1146,0.1678 7.96671,-0.1048 13.28167,-0.7462 4.22088,-0.5094 6.25133,-1.2668 7.99361,-2.9818 1.50029,-1.4768 1.94297,-1.4391 0.5969,0.051 -0.8579,0.9496 -3.20199,2.2838 -5.30171,3.0177 -1.14454,0.4 -4.42348,0.8335 -4.97656,0.658 -0.26779,-0.085 -0.63516,-0.031 -0.81639,0.119 -0.65596,0.5443 -10.79184,1.0075 -13.05438,0.5964 z m 25.55141,-6.6027 c 0,-0.1148 0.29493,-0.4848 0.6554,-0.8222 l 0.6554,-0.6133 -0.46566,0.8206 c -0.44133,0.7777 -0.84514,1.0716 -0.84514,0.6149 z m -16.82345,-2.3438 c -1.11313,-0.1291 -3.16231,-0.3527 -4.55372,-0.4969 -5.85473,-0.6067 -9.19947,-1.5912 -10.98357,-3.233 -1.91578,-1.763 -3.97199,-6.06 -4.84273,-10.1201 -0.81617,-3.8056 -0.92875,-6.1197 -0.4559,-9.3712 0.27524,-1.8927 0.63077,-3.3941 0.89856,-3.7948 0.2437,-0.3646 0.50328,-1.2292 0.57683,-1.9214 0.10823,-1.0186 0.25428,-1.3189 0.76618,-1.5751 0.47582,-0.2381 0.63246,-0.5159 0.63246,-1.1215 0,-0.4428 0.1423,-0.8535 0.31623,-0.9127 0.18622,-0.063 0.31623,0.1091 0.31623,0.4195 0,0.2898 0.0961,0.527 0.21364,0.527 0.1175,0 1.51663,-1.285 3.10918,-2.8555 3.3264,-3.28046 5.08615,-4.58416 5.90892,-4.37766 0.36164,0.091 1.31324,-0.2528 2.7543,-0.9943 2.22311,-1.1439 3.31877,-1.3611 4.53432,-0.899 0.3384,0.1287 1.01416,0.144 1.50166,0.034 0.57985,-0.1308 1.22578,-0.082 1.86779,0.1417 0.53977,0.188 1.30949,0.3434 1.71049,0.3455 1.33828,0.01 5.70723,2.1946 7.23199,3.6211 6.53376,6.11296 9.30626,15.72636 6.96456,24.14886 -0.85716,3.0829 -1.43752,4.3913 -2.76949,6.2434 -1.9759,2.7475 -3.04429,3.6017 -6.71699,5.3702 -1.73376,0.8348 -2.11555,0.9198 -4.42723,0.9851 -1.39141,0.039 -3.44058,-0.034 -4.55371,-0.1632 z m 19.3533,-1.2405 c 0,-0.1548 0.2846,-0.7002 0.63246,-1.2121 0.7111,-1.0465 0.80144,-0.9485 0.27879,0.3024 -0.36191,0.8661 -0.91125,1.4146 -0.91125,0.9097 z m 3.94777,-8.7084 c 0.0846,-0.2203 0.26488,-0.4006 0.40073,-0.4006 0.33252,0 0.1243,0.575 -0.25387,0.7011 -0.18487,0.062 -0.24141,-0.054 -0.14686,-0.3005 z m 0.60556,-1.6655 c 0,-0.1391 0.12057,-0.253 0.26792,-0.253 0.14735,0 0.19756,0.1139 0.11156,0.253 -0.086,0.1391 -0.20656,0.253 -0.26791,0.253 -0.0614,0 -0.11157,-0.1139 -0.11157,-0.253 z m 1.01194,-3.9213 c 0,-0.2087 0.11027,-0.3794 0.24505,-0.3794 0.13477,0 0.17951,0.1707 0.0994,0.3794 -0.0801,0.2088 -0.19036,0.3795 -0.24504,0.3795 -0.0547,0 -0.0994,-0.1707 -0.09941,-0.3795 z m 0.25299,-1.5029 c 0,-0.2169 0.11384,-0.3944 0.25298,-0.3944 0.13914,0 0.25298,0.1071 0.25298,0.238 0,0.1309 -0.11384,0.3084 -0.25298,0.3944 -0.13914,0.086 -0.25298,-0.021 -0.25298,-0.238 z m 0.25298,-1.7709 c 0,-0.3561 0.11384,-0.6474 0.25298,-0.6474 0.13915,0 0.25299,0.221 0.25299,0.491 0,0.2701 -0.11384,0.5614 -0.25299,0.6474 -0.14348,0.089 -0.25298,-0.1238 -0.25298,-0.491 z m 0.25298,-2.4034 c 0,-0.2865 0.11385,-0.5209 0.25299,-0.5209 0.13914,0 0.25298,0.1641 0.25298,0.3646 0,0.2005 -0.11384,0.4349 -0.25298,0.5209 -0.13914,0.086 -0.25299,-0.078 -0.25299,-0.3646 z m 0,-7.6044 c 0,-0.2784 0.11385,-0.506 0.25299,-0.506 0.13914,0 0.25298,0.2276 0.25298,0.506 0,0.2783 -0.11384,0.5059 -0.25298,0.5059 -0.13914,0 -0.25299,-0.2276 -0.25299,-0.5059 z m -0.25298,-2.2769 c 0,-0.1392 0.11384,-0.253 0.25298,-0.253 0.13915,0 0.25299,0.1138 0.25299,0.253 0,0.1391 -0.11384,0.253 -0.25299,0.253 -0.13914,0 -0.25298,-0.1139 -0.25298,-0.253 z m -0.25298,-2.1355 c 0,-0.2169 0.11384,-0.3944 0.25298,-0.3944 0.13914,0 0.25298,0.1071 0.25298,0.2381 0,0.1309 -0.11384,0.3084 -0.25298,0.3944 -0.13914,0.086 -0.25298,-0.021 -0.25298,-0.2381 z m -1.69777,-7.62446 c -0.14581,-0.6372 -0.17385,-1.0641 -0.0623,-0.9487 0.2255,0.2333 0.61628,2.1072 0.43944,2.1072 -0.0616,0 -0.23132,-0.5213 -0.37714,-1.1585 z m -1.96836,-4.4968 c -0.26726,-0.49627 -0.41393,-0.97431 -0.32594,-1.0623 0.20093,-0.20093 1.01821,1.34556 0.89942,1.70192 -0.0481,0.14446 -0.30622,-0.14337 -0.57348,-0.63963 z m -1.37167,-2.39929 c -0.17373,-0.32461 -0.26595,-0.64013 -0.20493,-0.70114 0.19861,-0.19861 0.7399,0.63405 0.62882,0.96729 -0.0683,0.20505 -0.22402,0.10731 -0.42389,-0.26615 z m -1.76615,-2.34439 c -1.04823,-1.31652 -1.16457,-1.62912 -0.50556,-1.3584 0.41384,0.17 1.85882,2.36633 1.67667,2.54848 -0.0685,0.0684 -0.59545,-0.46708 -1.17111,-1.19008 z"
       style="fill:#ffffff;fill-opacity:1;stroke:none;stroke-opacity:1"
       sodipodi:nodetypes="cscscccsssssscsssssssccsssssssccscssccccccscccsccssscscscssccscccccsscccsccscsccssssscscscsssssssscsssssssssssssssssssssccsccscccsccssscs" />
    <g
       style="font-style:normal;font-weight:normal;font-size:11.25px;line-height:125%;font-family:sans-serif;letter-spacing:0px;word-spacing:0px;fill:#ffffff;fill-opacity:1;stroke:none;stroke-width:1px;stroke-linecap:butt;stroke-linejoin:miter;stroke-opacity:1"
       id="text11298"
       transform="translate(8,-16.533759)">
      <path
         inkscape:connector-curvature="0"
         d="m 66.471329,1018.7305 6.481933,0 0,12.5024 8.10791,0 0,-12.5024 6.481934,0 0,32.8051 -6.481934,0 0,-14.5898 -8.10791,0 0,14.5898 -6.481933,0 0,-32.8051 z"
         style="font-style:normal;font-variant:normal;font-weight:bold;font-stretch:normal;font-size:45px;font-family:monospace;-inkscape-font-specification:'monospace Bold';fill:#ffffff;fill-opacity:1;stroke:none;stroke-opacity:1"
         id="path11367" />
      <path
         inkscape:connector-curvature="0"
         d="m 105.91225,1039.978 q -3.60352,0 -5.03174,0.9229 -1.428224,0.9228 -1.428224,3.164 0,1.67 0.988774,2.6587 0.98876,0.9888 2.68066,0.9888 2.54883,0 3.95508,-1.9116 1.40625,-1.9336 1.40625,-5.3833 l 0,-0.4395 -2.5708,0 z m 8.96484,-2.4829 0,14.0405 -6.39404,0 0,-2.7465 q -1.16455,1.6259 -2.98828,2.5048 -1.82373,0.879 -4.021,0.879 -4.196777,0 -6.547851,-2.2193 -2.329102,-2.2192 -2.329102,-6.1963 0,-4.3066 2.790527,-6.3501 2.790528,-2.0654 8.635256,-2.0654 l 4.46045,0 0,-1.0767 q 0,-1.56 -1.14258,-2.351 -1.12061,-0.813 -3.31787,-0.813 -2.30713,0 -4.482424,0.5932 -2.15332,0.5713 -4.504394,1.8457 l 0,-5.4931 q 2.131348,-0.8789 4.328613,-1.2964 2.197265,-0.4175 4.658205,-0.4175 5.99853,0 8.41553,2.439 2.43896,2.4389 2.43896,8.7231 z"
         style="font-style:normal;font-variant:normal;font-weight:bold;font-stretch:normal;font-size:45px;font-family:monospace;-inkscape-font-specification:'monospace Bold';fill:#ffffff;fill-opacity:1;stroke:none;stroke-opacity:1"
         id="path11369" />
      <path
         inkscape:connector-curvature="0"
         d="m 127.31361,1048.064 0,12.832 -6.41601,0 0,-33.9697 6.41601,0 0,3.6914 q 1.01075,-2.1314 2.6587,-3.208 1.64794,-1.0767 3.86718,-1.0767 4.21875,0 6.54785,3.3838 2.32911,3.3838 2.32911,9.5361 0,6.2403 -2.37305,9.5801 -2.35108,3.3399 -6.72363,3.3399 -1.97754,0 -3.55957,-1.0108 -1.56006,-1.0327 -2.74659,-3.0981 z m 8.96485,-8.855 q 0,-3.5596 -1.18653,-5.5811 -1.18652,-2.0215 -3.27392,-2.0215 -2.0874,0 -3.2959,2.0215 -1.2085,2.0215 -1.2085,5.5811 0,3.5596 1.2085,5.581 1.2085,2.0215 3.2959,2.0215 2.0874,0 3.27392,-2.0215 1.18653,-2.0214 1.18653,-5.581 z"
         style="font-style:normal;font-variant:normal;font-weight:bold;font-stretch:normal;font-size:45px;font-family:monospace;-inkscape-font-specification:'monospace Bold';fill:#ffffff;fill-opacity:1;stroke:none;stroke-opacity:1"
         id="path11371" />
      <path
         inkscape:connector-curvature="0"
         d="m 154.38393,1048.064 0,12.832 -6.41602,0 0,-33.9697 6.41602,0 0,3.6914 q 1.01074,-2.1314 2.65869,-3.208 1.64795,-1.0767 3.86719,-1.0767 4.21875,0 6.54785,3.3838 2.3291,3.3838 2.3291,9.5361 0,6.2403 -2.37305,9.5801 -2.35107,3.3399 -6.72363,3.3399 -1.97754,0 -3.55957,-1.0108 -1.56006,-1.0327 -2.74658,-3.0981 z m 8.96484,-8.855 q 0,-3.5596 -1.18652,-5.5811 -1.18653,-2.0215 -3.27393,-2.0215 -2.0874,0 -3.2959,2.0215 -1.20849,2.0215 -1.20849,5.5811 0,3.5596 1.20849,5.581 1.2085,2.0215 3.2959,2.0215 2.0874,0 3.27393,-2.0215 1.18652,-2.0214 1.18652,-5.581 z"
         style="font-style:normal;font-variant:normal;font-weight:bold;font-stretch:normal;font-size:45px;font-family:monospace;-inkscape-font-specification:'monospace Bold';fill:#ffffff;fill-opacity:1;stroke:none;stroke-opacity:1"
         id="path11373" />
      <path
         inkscape:connector-curvature="0"
         d="m 187.36488,1054.1943 q -1.29638,3.4717 -3.12011,5.0537 -1.80176,1.6041 -4.39454,1.6041 l -5.31738,0 0,-4.9 2.61475,0 q 1.97754,0 2.90039,-0.6811 0.92285,-0.6592 1.86767,-3.0981 l 0.4834,-1.3184 -9.36035,-23.9282 6.76758,0 5.625,15.9741 5.3833,-15.9741 6.76758,0 -10.21729,27.268 z"
         style="font-style:normal;font-variant:normal;font-weight:bold;font-stretch:normal;font-size:45px;font-family:monospace;-inkscape-font-specification:'monospace Bold';fill:#ffffff;fill-opacity:1;stroke:none;stroke-opacity:1"
         id="path11375" />
      <path
         inkscape:connector-curvature="0"
         d="m 226.05873,1018.7305 6.98731,0 6.37207,13.1836 6.39404,-13.1836 6.9873,0 -10.12939,19.8852 0,12.9199 -6.48193,0 0,-12.9199 -10.1294,-19.8852 z"
         style="font-style:normal;font-variant:normal;font-weight:bold;font-stretch:normal;font-size:45px;font-family:monospace;-inkscape-font-specification:'monospace Bold';fill:#ffffff;fill-opacity:1;stroke:none;stroke-opacity:1"
         id="path11377" />
      <path
         inkscape:connector-curvature="0"
         d="m 256.46889,1042.9443 0,-16.018 6.43799,0 0,15.0293 q 0,2.6587 0.74707,3.8012 0.74707,1.1426 2.48291,1.1426 1.73584,0 2.70263,-1.5381 0.98877,-1.5381 0.98877,-4.3066 l 0,-14.1284 6.43799,0 0,24.6093 -6.43799,0 0,-3.6474 q -0.68115,2.0434 -2.3291,3.164 -1.62598,1.1207 -3.9331,1.1207 -3.51563,0 -5.31739,-2.3291 -1.77978,-2.3292 -1.77978,-6.8995 z"
         style="font-style:normal;font-variant:normal;font-weight:bold;font-stretch:normal;font-size:45px;font-family:monospace;-inkscape-font-specification:'monospace Bold';fill:#ffffff;fill-opacity:1;stroke:none;stroke-opacity:1"
         id="path11379" />
      <path
         inkscape:connector-curvature="0"
         d="m 297.40395,1030.4199 0,-13.0737 6.41601,0 0,34.1894 -6.41601,0 0,-3.6474 q -1.03272,2.1313 -2.68067,3.208 -1.62597,1.0767 -3.84521,1.0767 -4.21875,0 -6.54785,-3.3838 -2.32911,-3.3838 -2.32911,-9.5362 0,-6.2402 2.35108,-9.58 2.37304,-3.3399 6.7456,-3.3399 1.97754,0 3.5376,1.0327 1.58203,1.0108 2.76856,3.0542 z m -8.96485,8.877 q 0,3.5595 1.18653,5.581 1.18652,2.0215 3.27392,2.0215 2.0874,0 3.2959,-2.0215 1.2085,-2.0215 1.2085,-5.581 0,-3.5596 -1.2085,-5.5811 -1.2085,-2.0215 -3.2959,-2.0215 -2.0874,0 -3.27392,2.0215 -1.18653,2.0215 -1.18653,5.5811 z"
         style="font-style:normal;font-variant:normal;font-weight:bold;font-stretch:normal;font-size:45px;font-family:monospace;-inkscape-font-specification:'monospace Bold';fill:#ffffff;fill-opacity:1;stroke:none;stroke-opacity:1"
         id="path11381" />
      <path
         inkscape:connector-curvature="0"
         d="m 331.30775,1050.3271 q -2.24121,0.9229 -4.57031,1.3843 -2.3291,0.4615 -4.92187,0.4615 -6.17432,0 -9.44825,-3.2959 -3.25195,-3.3179 -3.25195,-9.5362 0,-6.0205 3.14209,-9.5141 3.14209,-3.4937 8.56934,-3.4937 5.47119,0 8.48144,3.252 3.03223,3.2299 3.03223,9.1186 l 0,2.6148 -16.67725,0 q 0.022,2.9004 1.71387,4.3286 1.69189,1.4282 5.05371,1.4282 2.21924,0 4.37256,-0.6372 2.15332,-0.6372 4.50439,-2.0215 l 0,5.9106 z m -5.44921,-13.8427 q -0.0439,-2.5489 -1.31836,-3.8452 -1.25245,-1.3184 -3.71338,-1.3184 -2.21924,0 -3.5376,1.3623 -1.31836,1.3403 -1.56006,3.8232 l 10.1294,-0.022 z"
         style="font-style:normal;font-variant:normal;font-weight:bold;font-stretch:normal;font-size:45px;font-family:monospace;-inkscape-font-specification:'monospace Bold';fill:#ffffff;fill-opacity:1;stroke:none;stroke-opacity:1"
         id="path11383" />
      <path
         inkscape:connector-curvature="0"
         d="m 349.32533,1019.939 0,6.9873 8.41553,0 0,4.9438 -8.41553,0 0,11.6455 q 0,1.648 0.79102,2.3731 0.81299,0.7031 2.68066,0.7031 l 4.94385,0 0,4.9438 -5.40527,0 q -5.53711,0 -7.49268,-1.7578 -1.95557,-1.7798 -1.95557,-6.5698 l 0,-11.3379 -6.28418,0 0,-4.9438 6.28418,0 0,-6.9873 6.43799,0 z"
         style="font-style:normal;font-variant:normal;font-weight:bold;font-stretch:normal;font-size:45px;font-family:monospace;-inkscape-font-specification:'monospace Bold';fill:#ffffff;fill-opacity:1;stroke:none;stroke-opacity:1"
         id="path11385" />
      <path
         inkscape:connector-curvature="0"
         d="m 376.61537,1039.978 q -3.60351,0 -5.03174,0.9229 -1.42822,0.9228 -1.42822,3.164 0,1.67 0.98877,2.6587 0.98877,0.9888 2.68066,0.9888 2.54883,0 3.95508,-1.9116 1.40625,-1.9336 1.40625,-5.3833 l 0,-0.4395 -2.5708,0 z m 8.96485,-2.4829 0,14.0405 -6.39405,0 0,-2.7465 q -1.16455,1.6259 -2.98828,2.5048 -1.82373,0.879 -4.02099,0.879 -4.19678,0 -6.54786,-2.2193 -2.3291,-2.2192 -2.3291,-6.1963 0,-4.3066 2.79053,-6.3501 2.79053,-2.0654 8.63525,-2.0654 l 4.46045,0 0,-1.0767 q 0,-1.56 -1.14258,-2.351 -1.1206,-0.813 -3.31787,-0.813 -2.30713,0 -4.48242,0.5932 -2.15332,0.5713 -4.50439,1.8457 l 0,-5.4931 q 2.13134,-0.8789 4.32861,-1.2964 2.19727,-0.4175 4.6582,-0.4175 5.99854,0 8.41553,2.439 2.43897,2.4389 2.43897,8.7231 z"
         style="font-style:normal;font-variant:normal;font-weight:bold;font-stretch:normal;font-size:45px;font-family:monospace;-inkscape-font-specification:'monospace Bold';fill:#ffffff;fill-opacity:1;stroke:none;stroke-opacity:1"
         id="path11387" />
      <path
         inkscape:connector-curvature="0"
         d="m 403.46596,1029.3872 q 0.7251,-1.5601 1.8457,-2.3071 1.12061,-0.7471 2.74658,-0.7471 3.18604,0 4.39453,2.1973 1.23047,2.1972 1.23047,9.1406 l 0,13.8647 -5.27343,0 0,-15.7983 q 0,-2.7466 -0.41749,-3.6694 -0.41748,-0.9229 -1.51611,-0.9229 -1.09863,0 -1.53808,0.9448 -0.43946,0.9449 -0.43946,3.6475 l 0,15.7983 -5.20752,0 0,-15.7983 q 0,-2.7026 -0.43945,-3.6475 -0.43945,-0.9448 -1.53809,-0.9448 -1.09863,0 -1.51611,0.9229 -0.41748,0.9228 -0.41748,3.6694 l 0,15.7983 -5.27344,0 0,-24.6093 4.68018,0 0,2.5488 q 0.54931,-1.4502 1.75781,-2.2852 1.2085,-0.8569 2.70264,-0.8569 1.49414,0 2.72461,0.9009 1.23047,0.8789 1.49414,2.1533 z"
         style="font-style:normal;font-variant:normal;font-weight:bold;font-stretch:normal;font-size:45px;font-family:monospace;-inkscape-font-specification:'monospace Bold';fill:#ffffff;fill-opacity:1;stroke:none;stroke-opacity:1"
         id="path11389" />
      <path
         inkscape:connector-curvature="0"
         d="m 430.756,1039.978 q -3.60352,0 -5.03174,0.9229 -1.42822,0.9228 -1.42822,3.164 0,1.67 0.98877,2.6587 0.98876,0.9888 2.68066,0.9888 2.54883,0 3.95508,-1.9116 1.40625,-1.9336 1.40625,-5.3833 l 0,-0.4395 -2.5708,0 z m 8.96484,-2.4829 0,14.0405 -6.39404,0 0,-2.7465 q -1.16455,1.6259 -2.98828,2.5048 -1.82373,0.879 -4.021,0.879 -4.19678,0 -6.54785,-2.2193 -2.3291,-2.2192 -2.3291,-6.1963 0,-4.3066 2.79052,-6.3501 2.79053,-2.0654 8.63526,-2.0654 l 4.46045,0 0,-1.0767 q 0,-1.56 -1.14258,-2.351 -1.12061,-0.813 -3.31787,-0.813 -2.30713,0 -4.48242,0.5932 -2.15332,0.5713 -4.5044,1.8457 l 0,-5.4931 q 2.13135,-0.8789 4.32862,-1.2964 2.19726,-0.4175 4.6582,-0.4175 5.99853,0 8.41553,2.439 2.43896,2.4389 2.43896,8.7231 z"
         style="font-style:normal;font-variant:normal;font-weight:bold;font-stretch:normal;font-size:45px;font-family:monospace;-inkscape-font-specification:'monospace Bold';fill:#ffffff;fill-opacity:1;stroke:none;stroke-opacity:1"
         id="path11391" />
      <path
         inkscape:connector-curvature="0"
         d="m 460.08949,1038.8354 q 0,-3.2958 -1.25244,-5.2734 -1.25244,-1.9995 -3.2959,-1.9995 -2.02148,0 -3.27392,1.9775 -1.23047,1.9776 -1.23047,5.2954 0,3.3399 1.23047,5.3174 1.25244,1.9776 3.27392,1.9776 2.04346,0 3.2959,-1.9776 1.25244,-1.9995 1.25244,-5.3174 z m 6.43799,10.8545 q 0,5.9107 -2.68066,8.5254 -2.65869,2.6368 -8.65723,2.6368 -2.02148,0 -3.99902,-0.3077 -1.97754,-0.2856 -4.021,-0.9008 l 0,-5.9107 q 1.82373,1.0108 3.71338,1.4942 1.88965,0.4833 3.88916,0.4833 2.72461,0 4.021,-1.2963 1.29638,-1.2745 1.29638,-3.9991 l 0,-2.6587 q -0.94482,1.7579 -2.50488,2.6148 -1.56006,0.8569 -3.80127,0.8569 -4.21875,0 -6.70166,-3.2959 -2.48291,-3.2959 -2.48291,-8.9428 0,-5.8448 2.48291,-9.2725 2.48291,-3.4277 6.65772,-3.4277 2.10937,0 3.75732,0.9887 1.64795,0.9888 2.59277,2.7906 l 0,-3.1421 6.43799,0 0,22.7636 z"
         style="font-style:normal;font-variant:normal;font-weight:bold;font-stretch:normal;font-size:45px;font-family:monospace;-inkscape-font-specification:'monospace Bold';fill:#ffffff;fill-opacity:1;stroke:none;stroke-opacity:1"
         id="path11393" />
      <path
         inkscape:connector-curvature="0"
         d="m 483.05092,1031.5625 q -2.30713,0 -3.62549,2.0435 -1.31836,2.0214 -1.31836,5.6469 0,3.6255 1.31836,5.669 1.31836,2.0215 3.62549,2.0215 2.3291,0 3.64746,-2.0215 1.31836,-2.0435 1.31836,-5.669 0,-3.6255 -1.31836,-5.6469 -1.31836,-2.0435 -3.64746,-2.0435 z m -11.38184,7.6904 q 0,-5.9546 3.07617,-9.4262 3.09815,-3.4937 8.30567,-3.4937 5.22949,0 8.30566,3.4937 3.09815,3.4716 3.09815,9.4262 0,5.9546 -3.09815,9.4483 -3.07617,3.4717 -8.30566,3.4717 -5.20752,0 -8.30567,-3.4717 -3.07617,-3.4937 -3.07617,-9.4483 z"
         style="font-style:normal;font-variant:normal;font-weight:bold;font-stretch:normal;font-size:45px;font-family:monospace;-inkscape-font-specification:'monospace Bold';fill:#ffffff;fill-opacity:1;stroke:none;stroke-opacity:1"
         id="path11395" />
      <path
         inkscape:connector-curvature="0"
         d="m 506.4518,1043.4717 7.31689,0 0,8.0639 -7.31689,0 0,-8.0639 z"
         style="font-style:normal;font-variant:normal;font-weight:bold;font-stretch:normal;font-size:45px;font-family:monospace;-inkscape-font-specification:'monospace Bold';fill:#ffffff;fill-opacity:1;stroke:none;stroke-opacity:1"
         id="path11397" />
    </g>
    <path
       style="fill:#ffffff;fill-opacity:1;fill-rule:evenodd;stroke:#ffffff;stroke-width:3.63888526;stroke-linecap:butt;stroke-linejoin:miter;stroke-miterlimit:4;stroke-dasharray:none;stroke-opacity:1"
       d="m 7.9999997,1036.5427 523.5714303,0"
       id="path11304"
       inkscape:connector-curvature="0" />
  </g>
</svg>
